<?xml version="1.0" encoding="UTF-8"?>
<svg version="1.1" xmlns="http://www.w3.org/2000/svg" width="1024" height="1024">
<path d="M0 0 C337.92 0 675.84 0 1024 0 C1024 337.92 1024 675.84 1024 1024 C686.08 1024 348.16 1024 0 1024 C0 686.08 0 348.16 0 0 Z " fill="#0754FE" transform="translate(0,0)"/>
<path d="M0 0 C17.23260038 13.41418776 28.20913225 29.94841285 39.7019043 48.17163086 C43.33630562 53.92553891 47.04700852 59.62723102 50.77612305 65.32006836 C56.80502745 74.5323603 62.75980395 83.78998117 68.68603516 93.06860352 C73.40330975 100.45352619 78.14965292 107.81880611 82.91674805 115.17163086 C86.76309023 121.10520613 90.58162343 127.05669365 94.40112305 133.00756836 C100.7651395 123.59351638 106.93607327 114.06894997 113.01928711 104.47119141 C116.89976276 98.35354536 120.81763607 92.26249983 124.77612305 86.19506836 C129.65123896 78.72143426 134.47398176 71.21578439 139.27612305 63.69506836 C165.18281441 23.18290641 186.22297781 -7.5952625 234.36206055 -20.80493164 C252.32615413 -24.59793674 271.07188166 -22.37787067 288.40112305 -16.99243164 C289.4989209 -16.65550293 289.4989209 -16.65550293 290.61889648 -16.31176758 C305.25553071 -11.67582119 317.75134299 -3.92771577 329.40112305 6.00756836 C329.96057617 6.44584961 330.5200293 6.88413086 331.09643555 7.33569336 C351.46718373 23.33366313 364.03002614 51.02893708 367.0769043 76.21459961 C370.41298954 115.24277756 354.15043779 145.36231215 333.40112305 176.90209961 C329.30681177 183.13305417 325.2860593 189.40958734 321.27612305 195.69506836 C316.5150107 203.15281072 311.73392475 210.59607022 306.90112305 218.00756836 C301.28536965 226.62073013 295.73831697 235.27683267 290.2019043 243.94116211 C286.4521143 249.80788558 282.69107385 255.66671275 278.90112305 261.50756836 C274.37161348 268.48875935 269.88349735 275.49603313 265.40112305 282.50756836 C260.49734308 290.17828563 255.57907614 297.83879661 250.6237793 305.47631836 C245.81882709 312.89048794 241.06632736 320.33817421 236.30786133 327.78222656 C232.48181706 333.76490899 228.64269929 339.73850972 224.77612305 345.69506836 C220.65406784 352.04570178 216.58426307 358.42842857 212.52612305 364.82006836 C189.77696618 400.5936706 166.98315777 434.847309 123.40112305 446.00756836 C90.6651191 453.00491278 61.21533228 447.82942163 32.77612305 430.75756836 C14.10846801 418.41554944 1.62300271 401.80705712 -10.22387695 383.13256836 C-11.63868135 380.91215924 -13.05405314 378.69211155 -14.4699707 376.47241211 C-15.16719238 375.37912598 -15.86441406 374.28583984 -16.58276367 373.15942383 C-19.46257418 368.6573224 -22.36991511 364.1734884 -25.28637695 359.69506836 C-26.07588745 358.48234253 -26.07588745 358.48234253 -26.88134766 357.24511719 C-28.45312407 354.83212197 -30.02581592 352.41972629 -31.59887695 350.00756836 C-38.60380719 339.26609195 -45.57172622 328.50295202 -52.47387695 317.69506836 C-59.55784492 306.60337957 -66.73322522 295.57355996 -73.93383789 284.55737305 C-81.54768739 272.89768915 -89.05654958 261.17143541 -96.55566406 249.43774414 C-100.70981167 242.94323859 -104.88830698 236.46561893 -109.09887695 230.00756836 C-114.01325311 222.4700402 -118.87825582 214.90197337 -123.72387695 207.32006836 C-128.23033687 200.26904695 -132.73877895 193.21964874 -137.28637695 186.19506836 C-137.93050537 185.19975098 -137.93050537 185.19975098 -138.58764648 184.18432617 C-140.97378628 180.50193447 -143.37058281 176.82671359 -145.7746582 173.15600586 C-166.91938713 140.84324238 -185.13246461 108.60719865 -177.16235352 68.4309082 C-170.48317974 38.57260483 -152.75390001 12.26040425 -126.92700195 -4.38696289 C-87.37314085 -28.75076617 -37.70602409 -28.14433027 0 0 Z " fill="#FDFDFE" transform="translate(417.598876953125,304.992431640625)"/>
<path d="M0 0 C0.92554688 0.42410156 1.85109375 0.84820312 2.8046875 1.28515625 C9.87562739 4.8010391 15.4330641 9.44267884 21 15 C21.59167969 15.58007812 22.18335938 16.16015625 22.79296875 16.7578125 C28.68777569 23.00266736 33.01494508 30.53710741 37.58251953 37.76513672 C39.75741712 41.1941778 41.97432765 44.5955959 44.1875 48 C48.73848921 55.02244755 53.24521266 62.07285626 57.75 69.125 C65.42428646 81.13321486 73.19676536 93.07530968 81 105 C89.35478097 117.76754837 97.6556524 130.56574983 105.86328125 143.4284668 C111.54655616 152.32171398 117.31340249 161.15822347 123.09887695 169.98510742 C128.10884997 177.62968083 133.08298979 185.29528315 138 193 C142.01574193 189.43567637 144.53336213 185.2173272 147.3125 180.6875 C148.38514714 178.96386471 149.45943865 177.24125194 150.53515625 175.51953125 C151.09992676 174.61541504 151.66469727 173.71129883 152.24658203 172.77978516 C155.19280328 168.10898662 158.22236831 163.4932799 161.25 158.875 C167.32261373 149.59868069 173.3205277 140.27682862 179.28881836 130.93310547 C185.25515058 121.59354306 191.26917602 112.28568139 197.3046875 102.99072266 C202.87117862 94.4165971 208.39587375 85.8177634 213.875 77.1875 C219.49186129 68.3421338 225.17301323 59.54104164 230.8984375 50.765625 C232.93776964 47.63856424 234.96370775 44.50354228 236.9765625 41.359375 C262.34374639 1.74823896 262.34374639 1.74823896 285.7578125 -3.6015625 C297.06042888 -4.99055873 309.32616798 -5.37643817 320 -1 C320.95777344 -0.62101562 321.91554688 -0.24203125 322.90234375 0.1484375 C337.37782146 6.59440312 348.62463174 18.83278068 354.95703125 33.2265625 C360.21124442 47.19844022 360.12486101 64.28185704 354 78 C349.89078112 87.05991604 344.00933177 95.25714135 338.5625 103.55078125 C334.98788268 109.00010859 331.48819648 114.49508363 328 120 C323.06331512 127.78116217 318.07357508 135.5249327 313.03955078 143.2434082 C308.615082 150.03502788 304.23973698 156.85736661 299.875 163.6875 C293.19719588 174.13693168 286.47787484 184.55827116 279.72753906 194.9609375 C273.82675846 204.05703799 267.96360086 213.17634359 262.125 222.3125 C256.76468372 230.69982581 251.37070683 239.06358854 245.93408203 247.40161133 C241.58640043 254.077979 237.28895722 260.78578804 233 267.5 C227.68475608 275.82082777 222.34134855 284.12163644 216.94018555 292.38696289 C213.92066145 297.0160315 210.93882716 301.66645356 207.98828125 306.33984375 C193.48027207 329.29697475 179.93473114 350.72288517 152 358 C135.79453793 361.26284471 120.09662782 358.47769226 106 350 C102.87037885 347.80594086 99.92409702 345.45826198 97 343 C95.81688232 342.09519897 95.81688232 342.09519897 94.60986328 341.17211914 C86.65367101 334.55039392 81.22812131 325.05419171 75.6875 316.4375 C74.93846317 315.28102366 74.18894541 314.12485868 73.43896484 312.96899414 C71.96037247 310.6882876 70.48472398 308.4057275 69.01220703 306.12109375 C67.29210988 303.45308574 65.56771568 300.78797557 63.83984375 298.125 C62.06841938 295.39397649 60.30003412 292.66103985 58.53515625 289.92578125 C56.79743728 287.23275413 55.05486547 284.54295772 53.30859375 281.85546875 C48.530313 274.49718906 43.79731197 267.11357492 39.125 259.6875 C33.38961326 250.57578556 27.53414599 241.54539204 21.64990234 232.52929688 C18.88680916 228.29348074 16.13098251 224.05294469 13.375 219.8125 C12.83367432 218.97984619 12.29234863 218.14719238 11.73461914 217.28930664 C7.86797796 211.34022383 4.01164268 205.38453987 0.15917969 199.42626953 C-5.54471577 190.6072329 -11.27359596 181.80443013 -17 173 C-20.82611694 167.11728913 -24.65151938 161.23411697 -28.47412109 155.34912109 C-29.45340278 153.84149736 -30.432878 152.33399931 -31.41259766 150.82666016 C-35.69406741 144.23729486 -39.96732792 137.64377317 -44.1640625 131 C-45.29673826 129.20824688 -46.42955445 127.41658254 -47.5625 125.625 C-48.13613281 124.7170166 -48.70976562 123.8090332 -49.30078125 122.87353516 C-52.67679398 117.55961056 -56.12172053 112.30047732 -59.6484375 107.0859375 C-60.04572556 106.49696686 -60.44301361 105.90799622 -60.8523407 105.30117798 C-62.78941182 102.43095748 -64.7346752 99.56745891 -66.69555664 96.71337891 C-75.77190482 83.30715124 -82.37221991 71.10769538 -82.3125 54.625 C-82.32861328 53.74328125 -82.34472656 52.8615625 -82.36132812 51.953125 C-82.37256138 36.63095886 -75.07224268 23.30660799 -64.59375 12.43359375 C-47.74976114 -3.37032953 -21.59013385 -10.5969923 0 0 Z " fill="#0854FE" transform="translate(374,341)"/>
<path d="M0 0 C0.66 0.66 1.32 1.32 2 2 C-0.05047267 4.15855029 -2.11394681 6.30131521 -4.1875 8.4375 C-5.0547168 9.35499023 -5.0547168 9.35499023 -5.93945312 10.29101562 C-11.32421875 15.79747087 -11.32421875 15.79747087 -16 16 C-10.66666667 10.66666667 -5.33333333 5.33333333 0 0 Z " fill="#1858F7" transform="translate(599,714)"/>
<path d="M0 0 C0.66 0.66 1.32 1.32 2 2 C-0.97 4.475 -0.97 4.475 -4 7 C-4.66 6.67 -5.32 6.34 -6 6 C-4.02 4.02 -2.04 2.04 0 0 Z " fill="#2761F3" transform="translate(599,714)"/>
</svg>
